<?xml version="1.0" encoding="UTF-8"?>
<svg version="1.1" xmlns="http://www.w3.org/2000/svg" width="48" height="48">
<path d="M0 0 C0.75023438 0.08636719 1.50046875 0.17273437 2.2734375 0.26171875 C1.71950391 6.35498824 0.34388066 11.5004856 -1.7265625 17.26171875 C2.8934375 17.26171875 7.5134375 17.26171875 12.2734375 17.26171875 C11.14898274 22.88399253 11.14898274 22.88399253 8.83203125 25.4609375 C8.33437256 26.02603027 7.83671387 26.59112305 7.32397461 27.17333984 C6.79167236 27.75937988 6.25937012 28.34541992 5.7109375 28.94921875 C4.61558192 30.1834728 3.52183906 31.41915991 2.4296875 32.65625 C1.89214844 33.26291504 1.35460937 33.86958008 0.80078125 34.49462891 C-1.99303565 37.72698932 -4.54829731 41.14584575 -7.10546875 44.56640625 C-7.64042969 45.12585937 -8.17539062 45.6853125 -8.7265625 46.26171875 C-9.7165625 46.26171875 -10.7065625 46.26171875 -11.7265625 46.26171875 C-12.15828183 39.78592877 -10.5670618 34.4734039 -8.7265625 28.26171875 C-13.3465625 28.26171875 -17.9665625 28.26171875 -22.7265625 28.26171875 C-21.68496409 23.0537267 -20.05734614 20.84246644 -16.6640625 17.07421875 C-15.65853923 15.93241157 -14.65464763 14.78916552 -13.65234375 13.64453125 C-13.15557129 13.07895508 -12.65879883 12.51337891 -12.14697266 11.93066406 C-9.44669421 8.75790651 -7.01544571 5.36900407 -4.578125 1.9921875 C-2.7265625 0.26171875 -2.7265625 0.26171875 0 0 Z " fill="#E3C000" transform="translate(29.7265625,0.73828125)"/>
<path d="M0 0 C1.11375 0.1546875 1.11375 0.1546875 2.25 0.3125 C1.92 1.6325 1.59 2.9525 1.25 4.3125 C1.25 3.3225 1.25 2.3325 1.25 1.3125 C-1.72 3.7875 -1.72 3.7875 -4.75 6.3125 C-5.41 5.9825 -6.07 5.6525 -6.75 5.3125 C-3.42692308 0.38942308 -3.42692308 0.38942308 0 0 Z " fill="#836E00" transform="translate(29.75,0.6875)"/>
</svg>
